<?xml version="1.0" encoding="UTF-8" standalone="no"?><!-- Generator: Gravit.io --><svg xmlns="http://www.w3.org/2000/svg" xmlns:xlink="http://www.w3.org/1999/xlink" style="isolation:isolate" viewBox="701 377 180 180" width="180pt" height="180pt"><defs><clipPath id="_clipPath_bHCrHBHhrzISq2YnO5draXOg8wrP22Y8"><rect x="701" y="377" width="180" height="180"/></clipPath></defs><g clip-path="url(#_clipPath_bHCrHBHhrzISq2YnO5draXOg8wrP22Y8)"><path d=" M 791 377 C 840.672 377 881 417.328 881 467 C 881 516.672 840.672 557 791 557 C 741.328 557 701 516.672 701 467 C 701 417.328 741.328 377 791 377 Z  M 773.725 507.794 C 778.868 506.416 784.161 509.472 785.539 514.615 C 786.917 519.757 783.861 525.051 778.718 526.429 C 773.576 527.807 768.282 524.751 766.904 519.608 C 765.526 514.466 768.582 509.172 773.725 507.794 Z  M 825.655 406.546 C 827.502 407.041 828.6 408.943 828.105 410.79 C 827.61 412.637 825.709 413.734 823.862 413.239 L 820.634 412.375 C 820.047 417.121 816.961 443.216 818.245 458.044 C 804.548 469.874 780.875 505.457 780.875 505.457 L 793.315 459.031 C 795.744 458.876 798.412 457.332 799.076 454.852 C 799.909 451.743 798.061 448.542 794.952 447.709 C 791.843 446.876 788.642 448.724 787.809 451.833 C 787.145 454.313 788.683 456.984 790.709 458.332 L 778.269 504.759 C 778.269 504.759 774.975 463.985 769.612 445.012 C 778.328 433.72 788.578 408.768 790.391 404.271 L 787.15 403.403 C 785.303 402.908 784.206 401.006 784.701 399.159 C 785.196 397.312 787.097 396.215 788.944 396.71 L 825.655 406.546 L 825.655 406.546 Z " fill-rule="evenodd" fill="rgb(235,235,235)"/></g></svg>
