<?xml version="1.0" encoding="UTF-8" standalone="no"?><!DOCTYPE svg PUBLIC "-//W3C//DTD SVG 1.1//EN" "http://www.w3.org/Graphics/SVG/1.1/DTD/svg11.dtd">
<svg width="100%" height="100%" viewBox="0 0 600 200" version="1.1"
   xmlns="http://www.w3.org/2000/svg"
   xmlns:xlink="http://www.w3.org/1999/xlink" xml:space="preserve"
   xmlns:serif="http://www.serif.com/" style="fill-rule:evenodd;clip-rule:evenodd;stroke-linejoin:round;stroke-miterlimit:2;">
   <g>
      <g id="Letters">
         <path d="M47.186,178.013l44.221,0c10.812,0 29.237,-2.645 36.852,-7.121c18.763,-11.027 29.088,-22.646 29.088,-65.664c0,-32.664 -7.595,-41.664 -11.09,-47.07c-9.757,-16.086 -33.853,-24.195 -53.367,-24.327l-45.704,0l0,144.182Zm21.855,-123.514l21.377,0c11.075,-0.264 29.106,3.791 35.171,12.163c2.967,3.363 9.903,10.699 9.903,39.358c0,32.765 -4.845,36.171 -7.826,39.651c-6.53,7.624 -24.986,11.674 -37.248,11.674l-21.377,0l0,-102.846Z" style="fill:#484848;fill-rule:nonzero;"/>
         <path d="M213.469,77.616c-14.185,0 -19.406,5.191 -24.23,10.633l0,-51.67l-21.661,0l0,139.764l21.661,0l0,-49.35c0,-17.706 3.261,-31.268 21.156,-31.268c23.468,0 20.372,14.642 20.372,24.298l0,56.32l21.662,0l0,-62.347c0,-23.922 -6.782,-36.38 -38.96,-36.38Z" style="fill:#484848;fill-rule:nonzero;"/>
         <path d="M350.847,176.343l-0.188,-65.738c-0.189,-22.038 -14.692,-35.223 -40.498,-35.223c-19.024,0 -29.196,4.332 -43.134,12.62l8.853,15.069c9.983,-6.781 19.966,-10.172 29.572,-10.172c15.823,0 23.922,7.535 23.922,20.155l0,3.014l-30.326,0c-24.11,0.188 -37.86,11.866 -37.86,30.137c0,17.706 13.561,31.08 35.223,31.08c14.504,0 25.994,-4.332 33.151,-13.185l0,12.243l21.285,0Zm-49.915,-16.199c-12.055,0 -19.402,-5.839 -19.402,-14.88c0,-9.607 6.593,-13.374 20.72,-13.374l27.124,0l0,9.23c-1.13,10.925 -12.997,19.024 -28.442,19.024Z" style="fill:#484848;fill-rule:nonzero;"/>
         <path d="M438.4,147.248l0,-109.25l-21.473,0l0,111.51c0,19.213 10.924,29.196 24.863,29.196c6.028,0 19.908,-5.433 26.312,-9.012l-3.014,-17.706c-3.767,2.072 -14.445,6.94 -17.459,6.94c-5.65,0 -9.229,-3.579 -9.229,-11.678Z" style="fill:#484848;fill-rule:nonzero;"/>
         <path d="M384.477,147.248l0,-109.25l-21.474,0l0,111.51c0,19.213 10.925,29.196 24.864,29.196c6.028,0 19.907,-5.433 26.312,-9.012l-3.014,-17.706c-3.767,2.072 -14.445,6.94 -17.459,6.94c-5.651,0 -9.229,-3.579 -9.229,-11.678Z" style="fill:#484848;fill-rule:nonzero;"/>
      </g>
      <g id="Icon">
         <path d="M549.614,31.315c2.301,0.616 3.669,2.985 3.052,5.286c-0.617,2.302 -2.986,3.669 -5.287,3.053l-4.021,-1.078c-0.732,5.914 -4.576,38.426 -2.976,56.899c-17.066,14.74 -46.559,59.073 -46.559,59.073l15.499,-57.843c3.026,-0.193 6.349,-2.117 7.177,-5.206c1.038,-3.874 -1.264,-7.862 -5.138,-8.9c-3.874,-1.038 -7.862,1.264 -8.9,5.138c-0.827,3.09 1.089,6.418 3.613,8.098l-15.499,57.843c0,0 -4.103,-50.801 -10.785,-74.438c10.859,-14.069 23.629,-45.157 25.888,-50.76l-4.037,-1.082c-2.301,-0.616 -3.669,-2.985 -3.052,-5.287c0.616,-2.301 2.985,-3.668 5.286,-3.052l45.739,12.256Z" style="fill:#484848;"/>
         <path d="M484.914,157.459c6.407,-1.717 13.003,2.091 14.72,8.498c1.716,6.407 -2.092,13.003 -8.499,14.72c-6.407,1.717 -13.003,-2.091 -14.719,-8.498c-1.717,-6.408 2.091,-13.003 8.498,-14.72Z" style="fill:#484848;"/>
      </g>
   </g>
</svg>
